<svg width="586" height="163" viewBox="0 0 586 163" fill="none" xmlns="http://www.w3.org/2000/svg">
<path d="M331.74 40.436C330.508 42.02 329.144 43.1347 327.648 43.78C326.152 44.396 324.641 44.704 323.116 44.704C320.711 44.704 318.54 44.2933 316.604 43.472C314.697 42.6213 313.084 41.4627 311.764 39.996C310.444 38.5293 309.432 36.8133 308.728 34.848C308.024 32.8533 307.672 30.712 307.672 28.424C307.672 26.0773 308.024 23.9067 308.728 21.912C309.432 19.888 310.444 18.128 311.764 16.632C313.084 15.136 314.697 13.9627 316.604 13.112C318.54 12.2613 320.711 11.836 323.116 11.836C324.729 11.836 326.284 12.0853 327.78 12.584C329.305 13.0533 330.669 13.7573 331.872 14.696C333.104 15.6347 334.116 16.7933 334.908 18.172C335.7 19.5507 336.184 21.1347 336.36 22.924H329.76C329.349 21.164 328.557 19.844 327.384 18.964C326.211 18.084 324.788 17.644 323.116 17.644C321.561 17.644 320.241 17.952 319.156 18.568C318.071 19.1547 317.191 19.9613 316.516 20.988C315.841 21.9853 315.343 23.1293 315.02 24.42C314.727 25.7107 314.58 27.0453 314.58 28.424C314.58 29.744 314.727 31.0347 315.02 32.296C315.343 33.528 315.841 34.6427 316.516 35.64C317.191 36.6373 318.071 37.444 319.156 38.06C320.241 38.6467 321.561 38.94 323.116 38.94C325.404 38.94 327.164 38.368 328.396 37.224C329.657 36.0507 330.391 34.364 330.596 32.164H323.644V27.016H336.844V44H332.444L331.74 40.436ZM342.423 12.584H349.331V38.192H364.643V44H342.423V12.584ZM374.049 28.424C374.049 29.744 374.195 31.0347 374.489 32.296C374.811 33.528 375.31 34.6427 375.985 35.64C376.659 36.6373 377.539 37.444 378.625 38.06C379.71 38.6467 381.03 38.94 382.585 38.94C384.139 38.94 385.459 38.6467 386.545 38.06C387.63 37.444 388.51 36.6373 389.185 35.64C389.859 34.6427 390.343 33.528 390.637 32.296C390.959 31.0347 391.121 29.744 391.121 28.424C391.121 27.0453 390.959 25.7107 390.637 24.42C390.343 23.1293 389.859 21.9853 389.185 20.988C388.51 19.9613 387.63 19.1547 386.545 18.568C385.459 17.952 384.139 17.644 382.585 17.644C381.03 17.644 379.71 17.952 378.625 18.568C377.539 19.1547 376.659 19.9613 375.985 20.988C375.31 21.9853 374.811 23.1293 374.489 24.42C374.195 25.7107 374.049 27.0453 374.049 28.424ZM367.141 28.424C367.141 26.0773 367.493 23.9067 368.197 21.912C368.901 19.888 369.913 18.128 371.233 16.632C372.553 15.136 374.166 13.9627 376.073 13.112C378.009 12.2613 380.179 11.836 382.585 11.836C385.019 11.836 387.19 12.2613 389.097 13.112C391.003 13.9627 392.617 15.136 393.937 16.632C395.257 18.128 396.269 19.888 396.973 21.912C397.677 23.9067 398.029 26.0773 398.029 28.424C398.029 30.712 397.677 32.8533 396.973 34.848C396.269 36.8133 395.257 38.5293 393.937 39.996C392.617 41.4627 391.003 42.6213 389.097 43.472C387.19 44.2933 385.019 44.704 382.585 44.704C380.179 44.704 378.009 44.2933 376.073 43.472C374.166 42.6213 372.553 41.4627 371.233 39.996C369.913 38.5293 368.901 36.8133 368.197 34.848C367.493 32.8533 367.141 30.712 367.141 28.424ZM409.659 25.3H416.655C417.887 25.3 418.899 25.0067 419.691 24.42C420.483 23.8333 420.879 22.88 420.879 21.56C420.879 20.8267 420.747 20.2253 420.483 19.756C420.219 19.2867 419.867 18.92 419.427 18.656C418.987 18.392 418.474 18.216 417.887 18.128C417.33 18.0107 416.743 17.952 416.127 17.952H409.659V25.3ZM402.751 12.584H417.535C419.031 12.584 420.395 12.716 421.627 12.98C422.859 13.244 423.915 13.684 424.795 14.3C425.675 14.8867 426.35 15.6787 426.819 16.676C427.318 17.6733 427.567 18.9053 427.567 20.372C427.567 21.956 427.2 23.276 426.467 24.332C425.763 25.388 424.707 26.2533 423.299 26.928C425.235 27.4853 426.672 28.468 427.611 29.876C428.579 31.2547 429.063 32.9267 429.063 34.892C429.063 36.476 428.755 37.8547 428.139 39.028C427.523 40.172 426.687 41.1107 425.631 41.844C424.604 42.5773 423.416 43.12 422.067 43.472C420.747 43.824 419.383 44 417.975 44H402.751V12.584ZM409.659 38.632H417.051C417.726 38.632 418.371 38.5733 418.987 38.456C419.603 38.3093 420.146 38.0893 420.615 37.796C421.084 37.4733 421.451 37.048 421.715 36.52C422.008 35.992 422.155 35.3173 422.155 34.496C422.155 32.8827 421.7 31.7387 420.791 31.064C419.882 30.36 418.679 30.008 417.183 30.008H409.659V38.632ZM441.651 31.856H449.791L445.831 20.328H445.743L441.651 31.856ZM442.311 12.584H449.395L461.143 44H453.971L451.595 37.004H439.847L437.383 44H430.431L442.311 12.584ZM463.852 12.584H470.76V38.192H486.072V44H463.852V12.584ZM510.101 31.856H518.241L514.281 20.328H514.193L510.101 31.856ZM510.761 12.584H517.845L529.593 44H522.421L520.045 37.004H508.297L505.833 44H498.881L510.761 12.584ZM532.302 12.584H539.21V44H532.302V12.584Z" fill="url(#paint0_linear_2859_13200)"/>
<path d="M309.036 65.584H315.944V77.64H328.66V65.584H335.568V97H328.66V83.448H315.944V97H309.036V65.584ZM349.569 84.856H357.709L353.749 73.328H353.661L349.569 84.856ZM350.229 65.584H357.313L369.061 97H361.889L359.513 90.004H347.765L345.301 97H338.349L350.229 65.584ZM392.714 76.144C392.597 75.352 392.333 74.6333 391.922 73.988C391.512 73.3133 390.998 72.7267 390.382 72.228C389.766 71.7293 389.062 71.348 388.27 71.084C387.508 70.7907 386.701 70.644 385.85 70.644C384.296 70.644 382.976 70.952 381.89 71.568C380.805 72.1547 379.925 72.9613 379.25 73.988C378.576 74.9853 378.077 76.1293 377.754 77.42C377.461 78.7107 377.314 80.0453 377.314 81.424C377.314 82.744 377.461 84.0347 377.754 85.296C378.077 86.528 378.576 87.6427 379.25 88.64C379.925 89.6373 380.805 90.444 381.89 91.06C382.976 91.6467 384.296 91.94 385.85 91.94C387.962 91.94 389.605 91.2947 390.778 90.004C391.981 88.7133 392.714 87.012 392.978 84.9H399.666C399.49 86.8653 399.036 88.64 398.302 90.224C397.569 91.808 396.601 93.1573 395.398 94.272C394.196 95.3867 392.788 96.2373 391.174 96.824C389.561 97.4107 387.786 97.704 385.85 97.704C383.445 97.704 381.274 97.2933 379.338 96.472C377.432 95.6213 375.818 94.4627 374.498 92.996C373.178 91.5293 372.166 89.8133 371.462 87.848C370.758 85.8533 370.406 83.712 370.406 81.424C370.406 79.0773 370.758 76.9067 371.462 74.912C372.166 72.888 373.178 71.128 374.498 69.632C375.818 68.136 377.432 66.9627 379.338 66.112C381.274 65.2613 383.445 64.836 385.85 64.836C387.581 64.836 389.209 65.0853 390.734 65.584C392.289 66.0827 393.668 66.816 394.87 67.784C396.102 68.7227 397.114 69.896 397.906 71.304C398.698 72.712 399.197 74.3253 399.402 76.144H392.714ZM404.384 65.584H411.292V78.608L423.568 65.584H432.192L419.916 77.992L433.38 97H424.712L415.252 82.876L411.292 86.88V97H404.384V65.584ZM444.058 84.856H452.198L448.238 73.328H448.15L444.058 84.856ZM444.718 65.584H451.802L463.55 97H456.378L454.002 90.004H442.254L439.79 97H432.838L444.718 65.584ZM469.172 71.392H459.756V65.584H485.496V71.392H476.08V97H469.172V71.392ZM489.118 65.584H496.026V77.64H508.742V65.584H515.65V97H508.742V83.448H496.026V97H489.118V65.584ZM527.275 81.424C527.275 82.744 527.422 84.0347 527.715 85.296C528.038 86.528 528.537 87.6427 529.211 88.64C529.886 89.6373 530.766 90.444 531.851 91.06C532.937 91.6467 534.257 91.94 535.811 91.94C537.366 91.94 538.686 91.6467 539.771 91.06C540.857 90.444 541.737 89.6373 542.411 88.64C543.086 87.6427 543.57 86.528 543.863 85.296C544.186 84.0347 544.347 82.744 544.347 81.424C544.347 80.0453 544.186 78.7107 543.863 77.42C543.57 76.1293 543.086 74.9853 542.411 73.988C541.737 72.9613 540.857 72.1547 539.771 71.568C538.686 70.952 537.366 70.644 535.811 70.644C534.257 70.644 532.937 70.952 531.851 71.568C530.766 72.1547 529.886 72.9613 529.211 73.988C528.537 74.9853 528.038 76.1293 527.715 77.42C527.422 78.7107 527.275 80.0453 527.275 81.424ZM520.367 81.424C520.367 79.0773 520.719 76.9067 521.423 74.912C522.127 72.888 523.139 71.128 524.459 69.632C525.779 68.136 527.393 66.9627 529.299 66.112C531.235 65.2613 533.406 64.836 535.811 64.836C538.246 64.836 540.417 65.2613 542.323 66.112C544.23 66.9627 545.843 68.136 547.163 69.632C548.483 71.128 549.495 72.888 550.199 74.912C550.903 76.9067 551.255 79.0773 551.255 81.424C551.255 83.712 550.903 85.8533 550.199 87.848C549.495 89.8133 548.483 91.5293 547.163 92.996C545.843 94.4627 544.23 95.6213 542.323 96.472C540.417 97.2933 538.246 97.704 535.811 97.704C533.406 97.704 531.235 97.2933 529.299 96.472C527.393 95.6213 525.779 94.4627 524.459 92.996C523.139 91.5293 522.127 89.8133 521.423 87.848C520.719 85.8533 520.367 83.712 520.367 81.424ZM555.977 65.584H562.841L575.953 86.66H576.041V65.584H582.509V97H575.601L562.533 75.968H562.445V97H555.977V65.584Z" fill="url(#paint1_linear_2859_13200)"/>
<path d="M338.956 152H332.092L326.768 130.616H326.68L321.444 152H314.448L306.132 120.584H313.04L318.012 141.968H318.1L323.556 120.584H330.024L335.392 142.232H335.48L340.628 120.584H347.404L338.956 152ZM350.587 120.584H357.495V152H350.587V120.584ZM363.563 120.584H370.427L383.539 141.66H383.627V120.584H390.095V152H383.187L370.119 130.968H370.031V152H363.563V120.584ZM396.177 120.584H403.041L416.153 141.66H416.241V120.584H422.709V152H415.801L402.733 130.968H402.645V152H396.177V120.584ZM428.79 120.584H452.286V126.392H435.698V133.124H450.922V138.492H435.698V146.192H452.638V152H428.79V120.584ZM464.229 134.796H471.797C473.381 134.796 474.569 134.444 475.361 133.74C476.153 133.036 476.549 131.892 476.549 130.308C476.549 128.783 476.153 127.683 475.361 127.008C474.569 126.304 473.381 125.952 471.797 125.952H464.229V134.796ZM457.321 120.584H474.261C475.669 120.584 476.93 120.819 478.045 121.288C479.189 121.728 480.157 122.344 480.949 123.136C481.77 123.928 482.386 124.852 482.797 125.908C483.237 126.935 483.457 128.049 483.457 129.252C483.457 131.1 483.061 132.699 482.269 134.048C481.506 135.397 480.245 136.424 478.485 137.128V137.216C479.336 137.451 480.04 137.817 480.597 138.316C481.154 138.785 481.609 139.357 481.961 140.032C482.313 140.677 482.562 141.396 482.709 142.188C482.885 142.98 483.002 143.772 483.061 144.564C483.09 145.063 483.12 145.649 483.149 146.324C483.178 146.999 483.222 147.688 483.281 148.392C483.369 149.096 483.486 149.771 483.633 150.416C483.809 151.032 484.058 151.56 484.381 152H477.473C477.092 151.003 476.857 149.815 476.769 148.436C476.681 147.057 476.549 145.737 476.373 144.476C476.138 142.833 475.64 141.631 474.877 140.868C474.114 140.105 472.868 139.724 471.137 139.724H464.229V152H457.321V120.584ZM493.783 141.572C493.783 142.628 493.974 143.523 494.355 144.256C494.736 144.989 495.235 145.591 495.851 146.06C496.496 146.5 497.244 146.837 498.095 147.072C498.946 147.277 499.826 147.38 500.735 147.38C501.351 147.38 502.011 147.336 502.715 147.248C503.419 147.131 504.079 146.925 504.695 146.632C505.311 146.339 505.824 145.943 506.235 145.444C506.646 144.916 506.851 144.256 506.851 143.464C506.851 142.613 506.572 141.924 506.015 141.396C505.487 140.868 504.783 140.428 503.903 140.076C503.023 139.724 502.026 139.416 500.911 139.152C499.796 138.888 498.667 138.595 497.523 138.272C496.35 137.979 495.206 137.627 494.091 137.216C492.976 136.776 491.979 136.219 491.099 135.544C490.219 134.869 489.5 134.033 488.943 133.036C488.415 132.009 488.151 130.777 488.151 129.34C488.151 127.727 488.488 126.333 489.163 125.16C489.867 123.957 490.776 122.96 491.891 122.168C493.006 121.376 494.267 120.789 495.675 120.408C497.083 120.027 498.491 119.836 499.899 119.836C501.542 119.836 503.111 120.027 504.607 120.408C506.132 120.76 507.482 121.347 508.655 122.168C509.828 122.989 510.752 124.045 511.427 125.336C512.131 126.597 512.483 128.137 512.483 129.956H505.795C505.736 129.017 505.531 128.24 505.179 127.624C504.856 127.008 504.416 126.524 503.859 126.172C503.302 125.82 502.656 125.571 501.923 125.424C501.219 125.277 500.442 125.204 499.591 125.204C499.034 125.204 498.476 125.263 497.919 125.38C497.362 125.497 496.848 125.703 496.379 125.996C495.939 126.289 495.572 126.656 495.279 127.096C494.986 127.536 494.839 128.093 494.839 128.768C494.839 129.384 494.956 129.883 495.191 130.264C495.426 130.645 495.88 130.997 496.555 131.32C497.259 131.643 498.212 131.965 499.415 132.288C500.647 132.611 502.246 133.021 504.211 133.52C504.798 133.637 505.604 133.857 506.631 134.18C507.687 134.473 508.728 134.957 509.755 135.632C510.782 136.307 511.662 137.216 512.395 138.36C513.158 139.475 513.539 140.912 513.539 142.672C513.539 144.109 513.26 145.444 512.703 146.676C512.146 147.908 511.31 148.979 510.195 149.888C509.11 150.768 507.746 151.457 506.103 151.956C504.49 152.455 502.612 152.704 500.471 152.704C498.74 152.704 497.054 152.484 495.411 152.044C493.798 151.633 492.36 150.973 491.099 150.064C489.867 149.155 488.884 147.996 488.151 146.588C487.418 145.18 487.066 143.508 487.095 141.572H493.783Z" fill="url(#paint2_linear_2859_13200)"/>
<path d="M0.297496 80.5202C0.228132 41.3797 0.297496 8.9709 0.505589 8.48512C0.783047 7.79114 4.39 7.65234 32.4132 7.99933V151.653H0.505589L0.297496 80.5202Z" fill="url(#paint3_linear_2859_13200)"/>
<path d="M48.7139 120.077V63.8647V7.65234L80.2747 7.99933L80.6215 120.077H48.7139Z" fill="url(#paint4_linear_2859_13200)"/>
<path d="M96.506 80.2426C96.4366 40.8245 96.6447 8.34632 96.9221 8.06873C97.269 7.86054 104.413 7.72174 128.136 7.99933V151.653L96.5753 152L96.506 80.2426Z" fill="url(#paint5_linear_2859_13200)"/>
<path d="M144.367 24.3772C144.298 15.7025 144.506 8.34632 144.784 8.06873C145.13 7.86054 152.344 7.65234 176.344 7.65234V40.2694H144.437L144.367 24.3772Z" fill="url(#paint6_linear_2859_13200)"/>
<path d="M192.298 8.34632L232.044 8.13813C253.894 8.06873 271.998 8.13813 272.275 8.34632C272.553 8.55452 272.692 15.7025 272.414 39.9224H192.645L192.298 8.34632Z" fill="url(#paint7_linear_2859_13200)"/>
<path d="M144.506 104.462C144.229 64.3504 144.367 57.2719 145.2 56.7861C145.755 56.5085 152.899 56.3003 175.998 56.5779L176.344 152L144.784 151.653L144.506 104.462Z" fill="url(#paint8_linear_2859_13200)"/>
<path d="M192.368 104.462C192.09 64.3504 192.229 57.2719 193.061 56.7861C193.616 56.5085 200.899 56.3003 224.553 56.5779L224.9 152L192.645 151.653L192.368 104.462Z" fill="url(#paint9_linear_2859_13200)"/>
<defs>
<linearGradient id="paint0_linear_2859_13200" x1="427.5" y1="0" x2="427.5" y2="55" gradientUnits="userSpaceOnUse">
<stop stop-color="#101129"/>
<stop offset="1" stop-color="#777777"/>
</linearGradient>
<linearGradient id="paint1_linear_2859_13200" x1="446" y1="53" x2="446" y2="108" gradientUnits="userSpaceOnUse">
<stop stop-color="#101129"/>
<stop offset="1" stop-color="#777777"/>
</linearGradient>
<linearGradient id="paint2_linear_2859_13200" x1="457" y1="108" x2="457" y2="163" gradientUnits="userSpaceOnUse">
<stop stop-color="#101129"/>
<stop offset="1" stop-color="#777777"/>
</linearGradient>
<linearGradient id="paint3_linear_2859_13200" x1="136.418" y1="7.65234" x2="88" y2="176.5" gradientUnits="userSpaceOnUse">
<stop stop-color="#101129"/>
<stop offset="1" stop-color="#777777"/>
</linearGradient>
<linearGradient id="paint4_linear_2859_13200" x1="136.418" y1="7.65234" x2="88" y2="176.5" gradientUnits="userSpaceOnUse">
<stop stop-color="#101129"/>
<stop offset="1" stop-color="#777777"/>
</linearGradient>
<linearGradient id="paint5_linear_2859_13200" x1="136.418" y1="7.65234" x2="88" y2="176.5" gradientUnits="userSpaceOnUse">
<stop stop-color="#101129"/>
<stop offset="1" stop-color="#777777"/>
</linearGradient>
<linearGradient id="paint6_linear_2859_13200" x1="136.418" y1="7.65234" x2="88" y2="176.5" gradientUnits="userSpaceOnUse">
<stop stop-color="#101129"/>
<stop offset="1" stop-color="#777777"/>
</linearGradient>
<linearGradient id="paint7_linear_2859_13200" x1="136.418" y1="7.65234" x2="88" y2="176.5" gradientUnits="userSpaceOnUse">
<stop stop-color="#101129"/>
<stop offset="1" stop-color="#777777"/>
</linearGradient>
<linearGradient id="paint8_linear_2859_13200" x1="136.418" y1="7.65234" x2="88" y2="176.5" gradientUnits="userSpaceOnUse">
<stop stop-color="#101129"/>
<stop offset="1" stop-color="#777777"/>
</linearGradient>
<linearGradient id="paint9_linear_2859_13200" x1="136.418" y1="7.65234" x2="88" y2="176.5" gradientUnits="userSpaceOnUse">
<stop stop-color="#101129"/>
<stop offset="1" stop-color="#777777"/>
</linearGradient>
</defs>
</svg>
