<svg width="64" height="64" viewBox="0 0 64 64" fill="none" xmlns="http://www.w3.org/2000/svg">
<path d="M30.5 2.02051C31.4282 1.48468 32.5718 1.48468 33.5 2.02051L57.2129 15.7109C58.1411 16.2468 58.7129 17.2378 58.7129 18.3096V45.6904C58.7129 46.7622 58.1411 47.7532 57.2129 48.2891L33.5 61.9795C32.5718 62.5153 31.4282 62.5153 30.5 61.9795L6.78711 48.2891C5.85891 47.7532 5.28711 46.7622 5.28711 45.6904V18.3096C5.28711 17.2378 5.85891 16.2468 6.78711 15.7109L30.5 2.02051Z" stroke="#FF4545" stroke-width="2"/>
<path d="M42.2375 26.2458L43.7163 24.7316C44.0223 24.4148 44.1942 23.9852 44.1942 23.5371C44.1942 23.0891 44.0223 22.6594 43.7163 22.3426C43.4103 22.0258 42.9953 21.8479 42.5625 21.8479C42.1298 21.8479 41.7148 22.0258 41.4088 22.3426L39.9463 23.8736C37.6689 22.0497 34.8712 21.06 31.9919 21.06C29.1127 21.06 26.3149 22.0497 24.0375 23.8736L22.5588 22.3258C22.2506 22.009 21.8336 21.8319 21.3993 21.8335C20.965 21.8351 20.5492 22.0152 20.2432 22.3342C19.9372 22.6533 19.7661 23.0851 19.7676 23.5347C19.7692 23.9843 19.9431 24.4148 20.2513 24.7316L21.7463 26.2626C19.9637 28.6138 18.9965 31.5173 19 34.5064C18.9947 36.6521 19.485 38.7681 20.4301 40.6778C21.3751 42.5876 22.7475 44.2357 24.4327 45.4847C26.118 46.7338 28.0672 47.5476 30.118 47.8582C32.1687 48.1689 34.2615 47.9674 36.2217 47.2705C38.1819 46.5737 39.9529 45.4017 41.3867 43.8523C42.8206 42.303 43.8759 40.4211 44.4646 38.3637C45.0533 36.3063 45.1583 34.133 44.7709 32.0251C44.3835 29.9171 43.5149 27.9356 42.2375 26.2458ZM32 44.6007C30.0717 44.6007 28.1866 44.0087 26.5832 42.8995C24.9799 41.7903 23.7302 40.2138 22.9922 38.3693C22.2543 36.5248 22.0612 34.4952 22.4374 32.537C22.8136 30.5789 23.7422 28.7803 25.1058 27.3686C26.4693 25.9568 28.2066 24.9954 30.0979 24.6059C31.9892 24.2164 33.9496 24.4164 35.7312 25.1804C37.5128 25.9444 39.0355 27.2382 40.1069 28.8982C41.1782 30.5582 41.75 32.5099 41.75 34.5064C41.75 37.1836 40.7228 39.7511 38.8943 41.6442C37.0659 43.5372 34.5859 44.6007 32 44.6007ZM28.75 19.3648H35.25C35.681 19.3648 36.0943 19.1875 36.3991 18.872C36.7038 18.5565 36.875 18.1286 36.875 17.6824C36.875 17.2362 36.7038 16.8083 36.3991 16.4928C36.0943 16.1773 35.681 16 35.25 16H28.75C28.3191 16 27.9057 16.1773 27.601 16.4928C27.2962 16.8083 27.125 17.2362 27.125 17.6824C27.125 18.1286 27.2962 18.5565 27.601 18.872C27.9057 19.1875 28.3191 19.3648 28.75 19.3648ZM33.625 29.4592C33.625 29.013 33.4538 28.585 33.1491 28.2695C32.8443 27.954 32.431 27.7768 32 27.7768C31.5691 27.7768 31.1557 27.954 30.851 28.2695C30.5462 28.585 30.375 29.013 30.375 29.4592V32.6389C30.0071 32.9796 29.7477 33.428 29.6313 33.9247C29.5149 34.4213 29.5469 34.9429 29.723 35.4204C29.8991 35.8978 30.2112 36.3086 30.6178 36.5985C31.0244 36.8883 31.5064 37.0435 32 37.0435C32.4937 37.0435 32.9757 36.8883 33.3823 36.5985C33.7889 36.3086 34.1009 35.8978 34.2771 35.4204C34.4532 34.9429 34.4852 34.4213 34.3688 33.9247C34.2523 33.428 33.993 32.9796 33.625 32.6389V29.4592Z" fill="#FF4545"/>
</svg>
