<svg width="64" height="64" viewBox="0 0 64 64" fill="none" xmlns="http://www.w3.org/2000/svg">
<path d="M30.5 2.02051C31.4282 1.48468 32.5718 1.48468 33.5 2.02051L57.2129 15.7109C58.1411 16.2468 58.7129 17.2378 58.7129 18.3096V45.6904C58.7129 46.7622 58.1411 47.7532 57.2129 48.2891L33.5 61.9795C32.5718 62.5153 31.4282 62.5153 30.5 61.9795L6.78711 48.2891C5.85891 47.7532 5.28711 46.7622 5.28711 45.6904V18.3096C5.28711 17.2378 5.85891 16.2468 6.78711 15.7109L30.5 2.02051Z" stroke="#FF4545" stroke-width="2"/>
<path fill-rule="evenodd" clip-rule="evenodd" d="M31.157 18.5C30.224 18.5 29.468 19.256 29.468 20.1875L29.2655 21.605C29.224 21.895 29.1077 22.1691 28.9281 22.4005C28.7485 22.6319 28.5117 22.8126 28.2411 22.9247C27.9705 23.0369 27.6754 23.0766 27.3847 23.0401C27.0941 23.0036 26.818 22.8921 26.5835 22.7165L25.4375 21.857C25.2808 21.7003 25.0948 21.576 24.89 21.4912C24.6853 21.4064 24.4659 21.3627 24.2443 21.3627C24.0226 21.3627 23.8032 21.4064 23.5985 21.4912C23.3937 21.576 23.2077 21.7003 23.051 21.857L21.857 23.051C21.197 23.711 21.197 24.7775 21.857 25.436L22.7165 26.5835C22.8921 26.8179 23.0036 27.0939 23.0402 27.3844C23.0768 27.6749 23.0371 27.97 22.9252 28.2406C22.8132 28.5111 22.6327 28.7479 22.4015 28.9276C22.1703 29.1073 21.8963 29.2238 21.6065 29.2655L20.1875 29.4695C19.256 29.4695 18.5 30.224 18.5 31.1555V32.8445C18.5 33.7745 19.256 34.5305 20.1875 34.5305L21.605 34.7345C21.895 34.776 22.1691 34.8923 22.4005 35.0719C22.6319 35.2515 22.8126 35.4883 22.9247 35.7589C23.0369 36.0295 23.0766 36.3246 23.0401 36.6153C23.0036 36.9059 22.8921 37.182 22.7165 37.4165L21.857 38.5625C21.197 39.2225 21.197 40.2905 21.857 40.949L23.051 42.143C23.711 42.803 24.7775 42.803 25.436 42.143L26.5835 41.2835C26.8179 41.1079 27.0939 40.9964 27.3844 40.9598C27.6749 40.9232 27.97 40.9629 28.2406 41.0748C28.5111 41.1868 28.7479 41.3673 28.9276 41.5985C29.1073 41.8297 29.2238 42.1037 29.2655 42.3935L29.4695 43.8125C29.4695 44.744 30.224 45.5 31.1555 45.5H32.8445C33.7745 45.5 34.5305 44.744 34.5305 43.8125L34.7345 42.395C34.776 42.105 34.8923 41.8309 35.0719 41.5995C35.2515 41.3681 35.4883 41.1874 35.7589 41.0753C36.0295 40.9631 36.3246 40.9234 36.6153 40.9599C36.9059 40.9964 37.182 41.1079 37.4165 41.2835L38.5625 42.143C39.2225 42.803 40.2905 42.803 40.949 42.143L42.143 40.949C42.8015 40.289 42.8015 39.2225 42.143 38.564L41.2835 37.4165C41.1079 37.1821 40.9964 36.9061 40.9598 36.6156C40.9232 36.3251 40.9629 36.03 41.0748 35.7594C41.1868 35.4889 41.3673 35.2521 41.5985 35.0724C41.8297 34.8927 42.1037 34.7762 42.3935 34.7345L43.8125 34.5305C44.744 34.5305 45.5 33.776 45.5 32.8445V31.1555C45.5 30.2255 44.744 29.4695 43.8125 29.4695L42.395 29.2655C42.105 29.224 41.8309 29.1077 41.5995 28.9281C41.3681 28.7485 41.1874 28.5117 41.0753 28.2411C40.9631 27.9705 40.9234 27.6754 40.9599 27.3847C40.9964 27.0941 41.1079 26.818 41.2835 26.5835L42.143 25.4375C42.8015 24.7775 42.8015 23.7095 42.143 23.051L40.949 21.857C40.6326 21.541 40.2037 21.3635 39.7565 21.3635C39.3093 21.3635 38.8804 21.541 38.564 21.857L37.4165 22.7165C37.1821 22.8921 36.9061 23.0036 36.6156 23.0402C36.3251 23.0768 36.03 23.0371 35.7594 22.9252C35.4889 22.8132 35.2521 22.6327 35.0724 22.4015C34.8927 22.1703 34.7762 21.8963 34.7345 21.6065L34.5305 20.1875C34.5305 19.256 33.776 18.5 32.8445 18.5H31.157ZM32 35.375C32.8951 35.375 33.7535 35.0194 34.3865 34.3865C35.0194 33.7535 35.375 32.8951 35.375 32C35.375 31.1049 35.0194 30.2465 34.3865 29.6135C33.7535 28.9806 32.8951 28.625 32 28.625C31.1049 28.625 30.2465 28.9806 29.6135 29.6135C28.9806 30.2465 28.625 31.1049 28.625 32C28.625 32.8951 28.9806 33.7535 29.6135 34.3865C30.2465 35.0194 31.1049 35.375 32 35.375Z" fill="#FF4545"/>
</svg>
