<svg width="64" height="64" viewBox="0 0 64 64" fill="none" xmlns="http://www.w3.org/2000/svg">
<path d="M30.5 2.02051C31.4282 1.48468 32.5718 1.48468 33.5 2.02051L57.2129 15.7109C58.1411 16.2468 58.7129 17.2378 58.7129 18.3096V45.6904C58.7129 46.7622 58.1411 47.7532 57.2129 48.2891L33.5 61.9795C32.5718 62.5153 31.4282 62.5153 30.5 61.9795L6.78711 48.2891C5.85891 47.7532 5.28711 46.7622 5.28711 45.6904V18.3096C5.28711 17.2378 5.85891 16.2468 6.78711 15.7109L30.5 2.02051Z" stroke="#FF4545" stroke-width="2"/>
<path fill-rule="evenodd" clip-rule="evenodd" d="M19.0171 36.373C17.1212 37.009 16.0987 39.0638 16.7347 40.9597C17.3707 42.8556 19.426 43.8796 21.3219 43.2436C23.2178 42.6076 24.2413 40.5508 23.6053 38.6549C22.9693 36.759 20.913 35.737 19.0171 36.373ZM19.7724 38.6247C20.4269 38.4051 21.1346 38.7572 21.3536 39.4102C21.5727 40.0632 21.221 40.7724 20.5666 40.9919C19.9136 41.211 19.2054 40.8573 18.9864 40.2044C18.7673 39.5514 19.1194 38.8437 19.7724 38.6247Z" fill="#FF4545"/>
<path fill-rule="evenodd" clip-rule="evenodd" d="M35.9561 30.6908C34.0587 31.3273 33.0362 33.3822 33.6722 35.2781C34.3082 37.174 36.3635 38.198 38.2609 37.5615C40.1568 36.9255 41.1788 34.8692 40.5428 32.9732C39.9068 31.0773 37.852 30.0548 35.9561 30.6908ZM36.7114 32.9425C37.3644 32.7235 38.0721 33.0756 38.2911 33.7286C38.5102 34.3816 38.1585 35.0907 37.5056 35.3098C36.8511 35.5293 36.1429 35.1757 35.9239 34.5227C35.7048 33.8697 36.0569 33.1621 36.7114 32.9425Z" fill="#FF4545"/>
<path fill-rule="evenodd" clip-rule="evenodd" d="M24.9038 25.8329C23.0079 26.469 21.9859 28.5253 22.6219 30.4212C23.2579 32.3171 25.3127 33.3396 27.2086 32.7036C29.106 32.0671 30.1285 30.0123 29.4925 28.1163C28.8565 26.2204 26.8012 25.1964 24.9038 25.8329ZM25.6592 28.0846C26.3136 27.8651 27.0218 28.2187 27.2409 28.8717C27.4599 29.5247 27.1078 30.2323 26.4533 30.4519C25.8003 30.6709 25.0926 30.3188 24.8736 29.6658C24.6545 29.0128 25.0062 28.3037 25.6592 28.0846Z" fill="#FF4545"/>
<path fill-rule="evenodd" clip-rule="evenodd" d="M41.8389 20.1518C39.943 20.7878 38.9195 22.8446 39.5555 24.7405C40.1915 26.6364 42.2478 27.6584 44.1437 27.0224C46.0396 26.3864 47.0621 24.3316 46.4261 22.4357C45.7901 20.5398 43.7348 19.5158 41.8389 20.1518ZM42.5942 22.4035C43.2472 22.1844 43.9554 22.538 44.1744 23.191C44.3935 23.844 44.0414 24.5517 43.3884 24.7707C42.7339 24.9903 42.0262 24.6381 41.8072 23.9852C41.5881 23.3322 41.9398 22.623 42.5942 22.4035Z" fill="#FF4545"/>
<path fill-rule="evenodd" clip-rule="evenodd" d="M22.7138 37.386L25.5218 32.9921C25.8743 32.4396 25.7132 31.7054 25.1607 31.353C24.6078 30.999 23.8741 31.1617 23.5196 31.7131L20.7116 36.1071C20.3592 36.6595 20.5208 37.3952 21.0733 37.7477C21.6257 38.1001 22.3599 37.939 22.7138 37.386Z" fill="#FF4545"/>
<path fill-rule="evenodd" clip-rule="evenodd" d="M34.4433 31.5007L29.5536 29.6891C28.9383 29.4629 28.2549 29.7757 28.0273 30.3915C27.7991 31.0057 28.1134 31.6886 28.7277 31.9167L33.6174 33.7284C34.2332 33.9561 34.916 33.6418 35.1442 33.0275C35.3723 32.4132 35.0576 31.7289 34.4433 31.5007Z" fill="#FF4545"/>
<path fill-rule="evenodd" clip-rule="evenodd" d="M39.6513 31.7044L42.4593 27.3104C42.8118 26.758 42.6507 26.0238 42.0982 25.6713C41.5453 25.3174 40.8116 25.48 40.4571 26.0315L37.6491 30.4254C37.2967 30.9779 37.4583 31.7136 38.0108 32.066C38.5632 32.4184 39.2974 32.2573 39.6513 31.7044Z" fill="#FF4545"/>
</svg>
