<svg width="64" height="64" viewBox="0 0 64 64" fill="none" xmlns="http://www.w3.org/2000/svg">
<path d="M30.5 2.02051C31.4282 1.48468 32.5718 1.48468 33.5 2.02051L57.2129 15.7109C58.1411 16.2468 58.7129 17.2378 58.7129 18.3096V45.6904C58.7129 46.7622 58.1411 47.7532 57.2129 48.2891L33.5 61.9795C32.5718 62.5153 31.4282 62.5153 30.5 61.9795L6.78711 48.2891C5.85891 47.7532 5.28711 46.7622 5.28711 45.6904V18.3096C5.28711 17.2378 5.85891 16.2468 6.78711 15.7109L30.5 2.02051Z" stroke="#FF4545" stroke-width="2"/>
<path d="M30.229 37.6666C30.0334 37.6666 29.8748 37.508 29.8748 37.3124V35.5416C29.8748 34.368 30.8262 33.4166 31.9998 33.4166C33.1734 33.4166 34.1248 34.368 34.1248 35.5416V37.3124C34.1248 37.508 33.9663 37.6666 33.7707 37.6666C33.5751 37.6666 33.4165 37.8252 33.4165 38.0208V39.0833C33.4165 39.8657 32.7822 40.4999 31.9998 40.4999C31.2174 40.4999 30.5832 39.8657 30.5832 39.0833V38.0208C30.5832 37.8252 30.4246 37.6666 30.229 37.6666Z" fill="#FF4545"/>
<path fill-rule="evenodd" clip-rule="evenodd" d="M22.7915 27.7499C23.9651 27.7499 24.9165 26.7985 24.9165 25.6249V24.9166C24.9165 21.0046 28.0878 17.8333 31.9998 17.8333C35.9119 17.8333 39.0832 21.0046 39.0832 24.9166V25.6249C39.0832 26.7985 40.0346 27.7499 41.2082 27.7499C42.3818 27.7499 43.3332 28.7013 43.3332 29.8749V41.1666C43.3332 43.928 41.0946 46.1666 38.3332 46.1666H25.6665C22.9051 46.1666 20.6665 43.928 20.6665 41.1666V29.8749C20.6665 28.7013 21.6179 27.7499 22.7915 27.7499ZM27.7498 24.9166C27.7498 22.5694 29.6526 20.6666 31.9998 20.6666C34.347 20.6666 36.2498 22.5694 36.2498 24.9166C36.2498 26.4814 34.9813 27.7499 33.4165 27.7499H30.5832C29.0184 27.7499 27.7498 26.4814 27.7498 24.9166ZM28.4998 30.5833C25.7384 30.5833 23.4998 32.8218 23.4998 35.5833V38.3333C23.4998 41.0947 25.7384 43.3333 28.4998 43.3333H35.4998C38.2613 43.3333 40.4998 41.0947 40.4998 38.3333V35.5833C40.4998 32.8218 38.2613 30.5833 35.4998 30.5833H28.4998Z" fill="#FF4545"/>
</svg>
