<svg width="64" height="64" viewBox="0 0 64 64" fill="none" xmlns="http://www.w3.org/2000/svg">
<path d="M30.5 2.02051C31.4282 1.48468 32.5718 1.48468 33.5 2.02051L57.2129 15.7109C58.1411 16.2468 58.7129 17.2378 58.7129 18.3096V45.6904C58.7129 46.7622 58.1411 47.7532 57.2129 48.2891L33.5 61.9795C32.5718 62.5153 31.4282 62.5153 30.5 61.9795L6.78711 48.2891C5.85891 47.7532 5.28711 46.7622 5.28711 45.6904V18.3096C5.28711 17.2378 5.85891 16.2468 6.78711 15.7109L30.5 2.02051Z" stroke="#FF4545" stroke-width="2"/>
<path d="M45.83 32.5C46.5767 31.6785 46.9934 30.6101 47 29.5C47 28.3065 46.5259 27.1619 45.682 26.318C44.8381 25.4741 43.6935 25 42.5 25H34.73C34.9696 24.3223 35.0434 23.597 34.9451 22.8849C34.8469 22.1728 34.5795 21.4946 34.1652 20.9071C33.751 20.3196 33.2021 19.8398 32.5644 19.508C31.9267 19.1762 31.2188 19.002 30.5 19H21.5C20.3065 19 19.1619 19.4741 18.318 20.318C17.4741 21.1619 17 22.3065 17 23.5C17.0066 24.6101 17.4233 25.6785 18.17 26.5C17.4321 27.325 17.0241 28.3931 17.0241 29.5C17.0241 30.6069 17.4321 31.675 18.17 32.5C17.4321 33.325 17.0241 34.3931 17.0241 35.5C17.0241 36.6069 17.4321 37.675 18.17 38.5C17.4233 39.3215 17.0066 40.3899 17 41.5C17 42.6935 17.4741 43.8381 18.318 44.682C19.1619 45.5259 20.3065 46 21.5 46H42.5C43.3666 45.9954 44.2135 45.7406 44.9388 45.2663C45.6642 44.7919 46.2371 44.1182 46.5888 43.3262C46.9405 42.5341 47.056 41.6573 46.9213 40.8011C46.7867 39.945 46.4078 39.146 45.83 38.5C46.5679 37.675 46.9759 36.6069 46.9759 35.5C46.9759 34.3931 46.5679 33.325 45.83 32.5ZM30.5 43H21.5C21.1022 43 20.7206 42.842 20.4393 42.5607C20.158 42.2794 20 41.8978 20 41.5C20 41.1022 20.158 40.7206 20.4393 40.4393C20.7206 40.158 21.1022 40 21.5 40H30.5C30.8978 40 31.2794 40.158 31.5607 40.4393C31.842 40.7206 32 41.1022 32 41.5C32 41.8978 31.842 42.2794 31.5607 42.5607C31.2794 42.842 30.8978 43 30.5 43ZM30.5 37H21.5C21.1022 37 20.7206 36.842 20.4393 36.5607C20.158 36.2794 20 35.8978 20 35.5C20 35.1022 20.158 34.7206 20.4393 34.4393C20.7206 34.158 21.1022 34 21.5 34H30.5C30.8978 34 31.2794 34.158 31.5607 34.4393C31.842 34.7206 32 35.1022 32 35.5C32 35.8978 31.842 36.2794 31.5607 36.5607C31.2794 36.842 30.8978 37 30.5 37ZM30.5 31H21.5C21.1022 31 20.7206 30.842 20.4393 30.5607C20.158 30.2794 20 29.8978 20 29.5C20 29.1022 20.158 28.7206 20.4393 28.4393C20.7206 28.158 21.1022 28 21.5 28H30.5C30.8978 28 31.2794 28.158 31.5607 28.4393C31.842 28.7206 32 29.1022 32 29.5C32 29.8978 31.842 30.2794 31.5607 30.5607C31.2794 30.842 30.8978 31 30.5 31ZM30.5 25H21.5C21.1022 25 20.7206 24.842 20.4393 24.5607C20.158 24.2794 20 23.8978 20 23.5C20 23.1022 20.158 22.7206 20.4393 22.4393C20.7206 22.158 21.1022 22 21.5 22H30.5C30.8978 22 31.2794 22.158 31.5607 22.4393C31.842 22.7206 32 23.1022 32 23.5C32 23.8978 31.842 24.2794 31.5607 24.5607C31.2794 24.842 30.8978 25 30.5 25ZM43.535 42.565C43.402 42.7052 43.2414 42.8163 43.0632 42.8912C42.885 42.9661 42.6932 43.0031 42.5 43H34.73C35.0897 42.0323 35.0897 40.9677 34.73 40H42.5C42.8978 40 43.2794 40.158 43.5607 40.4393C43.842 40.7206 44 41.1022 44 41.5C43.9972 41.6995 43.9547 41.8965 43.8748 42.0794C43.795 42.2622 43.6795 42.4273 43.535 42.565ZM43.535 36.565C43.402 36.7052 43.2414 36.8163 43.0632 36.8912C42.885 36.9661 42.6932 37.0031 42.5 37H34.73C35.0897 36.0323 35.0897 34.9677 34.73 34H42.5C42.8978 34 43.2794 34.158 43.5607 34.4393C43.842 34.7206 44 35.1022 44 35.5C43.9972 35.6995 43.9547 35.8965 43.8748 36.0794C43.795 36.2622 43.6795 36.4273 43.535 36.565ZM43.535 30.565C43.402 30.7052 43.2414 30.8163 43.0632 30.8912C42.885 30.9661 42.6932 31.0031 42.5 31H34.73C35.0897 30.0323 35.0897 28.9677 34.73 28H42.5C42.8978 28 43.2794 28.158 43.5607 28.4393C43.842 28.7206 44 29.1022 44 29.5C43.9972 29.6995 43.9547 29.8965 43.8748 30.0794C43.795 30.2622 43.6795 30.4273 43.535 30.565Z" fill="#FF4545"/>
</svg>
