<svg width="64" height="64" viewBox="0 0 64 64" fill="none" xmlns="http://www.w3.org/2000/svg">
<path d="M30.5 2.02051C31.4282 1.48468 32.5718 1.48468 33.5 2.02051L57.2129 15.7109C58.1411 16.2468 58.7129 17.2378 58.7129 18.3096V45.6904C58.7129 46.7622 58.1411 47.7532 57.2129 48.2891L33.5 61.9795C32.5718 62.5153 31.4282 62.5153 30.5 61.9795L6.78711 48.2891C5.85891 47.7532 5.28711 46.7622 5.28711 45.6904V18.3096C5.28711 17.2378 5.85891 16.2468 6.78711 15.7109L30.5 2.02051Z" stroke="#FF4545" stroke-width="2"/>
<path d="M31.7083 36.3333C32.283 36.3333 32.8341 36.1051 33.2404 35.6987C33.6467 35.2924 33.875 34.7413 33.875 34.1667V21.1667C33.875 20.592 33.6467 20.0409 33.2404 19.6346C32.8341 19.2283 32.283 19 31.7083 19C31.1337 19 30.5826 19.2283 30.1763 19.6346C29.7699 20.0409 29.5417 20.592 29.5417 21.1667V34.1667C29.5417 34.7413 29.7699 35.2924 30.1763 35.6987C30.5826 36.1051 31.1337 36.3333 31.7083 36.3333ZM31.7083 45C32.244 45 32.7676 44.8412 33.213 44.5436C33.6584 44.246 34.0055 43.823 34.2105 43.3281C34.4155 42.8332 34.4691 42.2887 34.3646 41.7633C34.2601 41.2379 34.0022 40.7554 33.6234 40.3766C33.2446 39.9978 32.7621 39.7399 32.2367 39.6354C31.7113 39.5309 31.1668 39.5845 30.6719 39.7895C30.177 39.9945 29.754 40.3416 29.4564 40.787C29.1588 41.2324 29 41.756 29 42.2917C29 43.01 29.2853 43.6988 29.7933 44.2068C30.3012 44.7147 30.99 45 31.7083 45Z" fill="#FF4545"/>
</svg>
