<svg width="52" height="52" viewBox="0 0 52 52" fill="none" xmlns="http://www.w3.org/2000/svg">
<path d="M25.9974 30.3333C26.572 30.3333 27.1231 30.1051 27.5295 29.6987C27.9358 29.2924 28.1641 28.7413 28.1641 28.1667V15.1667C28.1641 14.592 27.9358 14.0409 27.5295 13.6346C27.1231 13.2283 26.572 13 25.9974 13C25.4228 13 24.8717 13.2283 24.4653 13.6346C24.059 14.0409 23.8307 14.592 23.8307 15.1667V28.1667C23.8307 28.7413 24.059 29.2924 24.4653 29.6987C24.8717 30.1051 25.4228 30.3333 25.9974 30.3333ZM25.9974 39C26.5331 39 27.0567 38.8412 27.5021 38.5436C27.9474 38.246 28.2946 37.823 28.4996 37.3281C28.7046 36.8332 28.7582 36.2887 28.6537 35.7633C28.5492 35.2379 28.2912 34.7554 27.9125 34.3766C27.5337 33.9978 27.0511 33.7399 26.5258 33.6354C26.0004 33.5309 25.4558 33.5845 24.961 33.7895C24.4661 33.9945 24.0431 34.3416 23.7455 34.787C23.4479 35.2324 23.2891 35.756 23.2891 36.2917C23.2891 37.01 23.5744 37.6988 24.0823 38.2068C24.5902 38.7147 25.2791 39 25.9974 39Z" fill="#28293F"/>
</svg>
