<svg width="38" height="38" viewBox="0 0 38 38" fill="none" xmlns="http://www.w3.org/2000/svg">
<g clip-path="url(#clip0_2408_10697)">
<path fill-rule="evenodd" clip-rule="evenodd" d="M6.43457 23.675C4.53865 24.311 3.51616 26.3658 4.15216 28.2617C4.78817 30.1576 6.84348 31.1816 8.73939 30.5456C10.6353 29.9096 11.6588 27.8528 11.0228 25.9569C10.3868 24.061 8.33048 23.039 6.43457 23.675ZM7.18992 25.9267C7.8444 25.7071 8.55206 26.0593 8.77111 26.7122C8.99016 27.3652 8.63853 28.0744 7.98404 28.2939C7.33105 28.513 6.62289 28.1594 6.40384 27.5064C6.18479 26.8534 6.53693 26.1457 7.18992 25.9267Z" fill="#28293F"/>
<path fill-rule="evenodd" clip-rule="evenodd" d="M23.3736 17.9928C21.4761 18.6294 20.4537 20.6842 21.0897 22.5801C21.7257 24.476 23.781 25.5 25.6784 24.8635C27.5743 24.2275 28.5963 22.1712 27.9603 20.2752C27.3243 18.3793 25.2695 17.3568 23.3736 17.9928ZM24.1289 20.2445C24.7819 20.0255 25.4896 20.3776 25.7086 21.0306C25.9277 21.6836 25.576 22.3927 24.923 22.6118C24.2686 22.8313 23.5604 22.4777 23.3413 21.8247C23.1223 21.1717 23.4744 20.4641 24.1289 20.2445Z" fill="#28293F"/>
<path fill-rule="evenodd" clip-rule="evenodd" d="M12.3213 13.1349C10.4254 13.771 9.40338 15.8273 10.0394 17.7232C10.6754 19.6191 12.7302 20.6416 14.6261 20.0056C16.5235 19.3691 17.546 17.3143 16.91 15.4183C16.274 13.5224 14.2187 12.4984 12.3213 13.1349ZM13.0766 15.3866C13.7311 15.1671 14.4393 15.5207 14.6583 16.1737C14.8774 16.8267 14.5252 17.5343 13.8708 17.7539C13.2178 17.9729 12.5101 17.6208 12.2911 16.9678C12.072 16.3148 12.4236 15.6057 13.0766 15.3866Z" fill="#28293F"/>
<path fill-rule="evenodd" clip-rule="evenodd" d="M29.2564 7.45378C27.3605 8.08979 26.337 10.1466 26.973 12.0425C27.609 13.9384 29.6653 14.9604 31.5612 14.3244C33.4571 13.6884 34.4796 11.6336 33.8436 9.73769C33.2076 7.84177 31.1523 6.81778 29.2564 7.45378ZM30.0117 9.70546C30.6647 9.48641 31.3729 9.84005 31.5919 10.493C31.811 11.146 31.4588 11.8537 30.8059 12.0727C30.1514 12.2923 29.4437 11.9401 29.2247 11.2872C29.0056 10.6342 29.3572 9.92502 30.0117 9.70546Z" fill="#28293F"/>
<path fill-rule="evenodd" clip-rule="evenodd" d="M10.1313 24.688L12.9393 20.2941C13.2918 19.7416 13.1306 19.0074 12.5782 18.655C12.0252 18.301 11.2915 18.4637 10.9371 19.0151L8.1291 23.4091C7.77667 23.9615 7.9383 24.6972 8.49074 25.0497C9.04318 25.4021 9.77739 25.241 10.1313 24.688Z" fill="#28293F"/>
<path fill-rule="evenodd" clip-rule="evenodd" d="M21.8608 18.8027L16.971 16.9911C16.3557 16.7649 15.6724 17.0777 15.4448 17.6935C15.2166 18.3078 15.5309 18.9906 16.1451 19.2187L21.0349 21.0304C21.6507 21.2581 22.3335 20.9438 22.5617 20.3295C22.7898 19.7152 22.4751 19.0309 21.8608 18.8027Z" fill="#28293F"/>
<path fill-rule="evenodd" clip-rule="evenodd" d="M27.0688 19.0064L29.8768 14.6124C30.2293 14.06 30.0681 13.3258 29.5157 12.9733C28.9627 12.6194 28.229 12.782 27.8746 13.3335L25.0666 17.7274C24.7142 18.2799 24.8758 19.0156 25.4282 19.368C25.9807 19.7204 26.7149 19.5593 27.0688 19.0064Z" fill="#28293F"/>
</g>
<defs>
<clipPath id="clip0_2408_10697">
<rect width="38" height="38" fill="white"/>
</clipPath>
</defs>
</svg>
