<svg width="34" height="34" viewBox="0 0 34 34" fill="none" xmlns="http://www.w3.org/2000/svg">
<path d="M15.2305 22.6663C15.0349 22.6663 14.8763 22.5078 14.8763 22.3122V20.5413C14.8763 19.3677 15.8277 18.4163 17.0013 18.4163C18.1749 18.4163 19.1263 19.3677 19.1263 20.5413V22.3122C19.1263 22.5078 18.9677 22.6663 18.7721 22.6663C18.5765 22.6663 18.418 22.8249 18.418 23.0205V24.083C18.418 24.8654 17.7837 25.4997 17.0013 25.4997C16.2189 25.4997 15.5846 24.8654 15.5846 24.083V23.0205C15.5846 22.8249 15.4261 22.6663 15.2305 22.6663Z" fill="#28293F"/>
<path fill-rule="evenodd" clip-rule="evenodd" d="M7.79297 12.7497C8.96657 12.7497 9.91797 11.7983 9.91797 10.6247V9.91634C9.91797 6.00432 13.0893 2.83301 17.0013 2.83301C20.9133 2.83301 24.0846 6.00432 24.0846 9.91634V10.6247C24.0846 11.7983 25.036 12.7497 26.2096 12.7497C27.3832 12.7497 28.3346 13.7011 28.3346 14.8747V26.1663C28.3346 28.9278 26.0961 31.1663 23.3346 31.1663H10.668C7.90654 31.1663 5.66797 28.9278 5.66797 26.1663V14.8747C5.66797 13.7011 6.61936 12.7497 7.79297 12.7497ZM12.7513 9.91634C12.7513 7.56913 14.6541 5.66634 17.0013 5.66634C19.3485 5.66634 21.2513 7.56913 21.2513 9.91634C21.2513 11.4811 19.9828 12.7497 18.418 12.7497H15.5846C14.0198 12.7497 12.7513 11.4811 12.7513 9.91634ZM13.5013 15.583C10.7399 15.583 8.5013 17.8216 8.5013 20.583V23.333C8.5013 26.0944 10.7399 28.333 13.5013 28.333H20.5013C23.2627 28.333 25.5013 26.0944 25.5013 23.333V20.583C25.5013 17.8216 23.2627 15.583 20.5013 15.583H13.5013Z" fill="#28293F"/>
</svg>
