<svg width="36" height="36" viewBox="0 0 36 36" fill="none" xmlns="http://www.w3.org/2000/svg">
<path d="M31.83 18C32.5767 17.1785 32.9934 16.1101 33 15C33 13.8065 32.5259 12.6619 31.682 11.818C30.8381 10.9741 29.6935 10.5 28.5 10.5H20.73C20.9696 9.82227 21.0434 9.09699 20.9451 8.38489C20.8469 7.67279 20.5795 6.99459 20.1652 6.40707C19.751 5.81956 19.2021 5.33982 18.5644 5.00802C17.9267 4.67622 17.2188 4.50202 16.5 4.5H7.5C6.30653 4.5 5.16193 4.97411 4.31802 5.81802C3.47411 6.66193 3 7.80653 3 9C3.00662 10.1101 3.42332 11.1785 4.17 12C3.43207 12.825 3.0241 13.8931 3.0241 15C3.0241 16.1069 3.43207 17.175 4.17 18C3.43207 18.825 3.0241 19.8931 3.0241 21C3.0241 22.1069 3.43207 23.175 4.17 24C3.42332 24.8215 3.00662 25.8899 3 27C3 28.1935 3.47411 29.3381 4.31802 30.182C5.16193 31.0259 6.30653 31.5 7.5 31.5H28.5C29.3666 31.4954 30.2135 31.2406 30.9388 30.7663C31.6642 30.2919 32.2371 29.6182 32.5888 28.8262C32.9405 28.0341 33.056 27.1573 32.9213 26.3011C32.7867 25.445 32.4078 24.646 31.83 24C32.5679 23.175 32.9759 22.1069 32.9759 21C32.9759 19.8931 32.5679 18.825 31.83 18ZM16.5 28.5H7.5C7.10218 28.5 6.72064 28.342 6.43934 28.0607C6.15804 27.7794 6 27.3978 6 27C6 26.6022 6.15804 26.2206 6.43934 25.9393C6.72064 25.658 7.10218 25.5 7.5 25.5H16.5C16.8978 25.5 17.2794 25.658 17.5607 25.9393C17.842 26.2206 18 26.6022 18 27C18 27.3978 17.842 27.7794 17.5607 28.0607C17.2794 28.342 16.8978 28.5 16.5 28.5ZM16.5 22.5H7.5C7.10218 22.5 6.72064 22.342 6.43934 22.0607C6.15804 21.7794 6 21.3978 6 21C6 20.6022 6.15804 20.2206 6.43934 19.9393C6.72064 19.658 7.10218 19.5 7.5 19.5H16.5C16.8978 19.5 17.2794 19.658 17.5607 19.9393C17.842 20.2206 18 20.6022 18 21C18 21.3978 17.842 21.7794 17.5607 22.0607C17.2794 22.342 16.8978 22.5 16.5 22.5ZM16.5 16.5H7.5C7.10218 16.5 6.72064 16.342 6.43934 16.0607C6.15804 15.7794 6 15.3978 6 15C6 14.6022 6.15804 14.2206 6.43934 13.9393C6.72064 13.658 7.10218 13.5 7.5 13.5H16.5C16.8978 13.5 17.2794 13.658 17.5607 13.9393C17.842 14.2206 18 14.6022 18 15C18 15.3978 17.842 15.7794 17.5607 16.0607C17.2794 16.342 16.8978 16.5 16.5 16.5ZM16.5 10.5H7.5C7.10218 10.5 6.72064 10.342 6.43934 10.0607C6.15804 9.77936 6 9.39782 6 9C6 8.60218 6.15804 8.22064 6.43934 7.93934C6.72064 7.65804 7.10218 7.5 7.5 7.5H16.5C16.8978 7.5 17.2794 7.65804 17.5607 7.93934C17.842 8.22064 18 8.60218 18 9C18 9.39782 17.842 9.77936 17.5607 10.0607C17.2794 10.342 16.8978 10.5 16.5 10.5ZM29.535 28.065C29.402 28.2052 29.2414 28.3163 29.0632 28.3912C28.885 28.4661 28.6932 28.5031 28.5 28.5H20.73C21.0897 27.5323 21.0897 26.4677 20.73 25.5H28.5C28.8978 25.5 29.2794 25.658 29.5607 25.9393C29.842 26.2206 30 26.6022 30 27C29.9972 27.1995 29.9547 27.3965 29.8748 27.5794C29.795 27.7622 29.6795 27.9273 29.535 28.065ZM29.535 22.065C29.402 22.2052 29.2414 22.3163 29.0632 22.3912C28.885 22.4661 28.6932 22.5031 28.5 22.5H20.73C21.0897 21.5323 21.0897 20.4677 20.73 19.5H28.5C28.8978 19.5 29.2794 19.658 29.5607 19.9393C29.842 20.2206 30 20.6022 30 21C29.9972 21.1995 29.9547 21.3965 29.8748 21.5794C29.795 21.7622 29.6795 21.9273 29.535 22.065ZM29.535 16.065C29.402 16.2052 29.2414 16.3163 29.0632 16.3912C28.885 16.4661 28.6932 16.5031 28.5 16.5H20.73C21.0897 15.5323 21.0897 14.4677 20.73 13.5H28.5C28.8978 13.5 29.2794 13.658 29.5607 13.9393C29.842 14.2206 30 14.6022 30 15C29.9972 15.1995 29.9547 15.3965 29.8748 15.5794C29.795 15.7622 29.6795 15.9273 29.535 16.065Z" fill="#28293F"/>
</svg>
