<svg width="36" height="36" viewBox="0 0 36 36" fill="none" xmlns="http://www.w3.org/2000/svg">
<path fill-rule="evenodd" clip-rule="evenodd" d="M17.157 4.5C16.224 4.5 15.468 5.256 15.468 6.1875L15.2655 7.605C15.224 7.89496 15.1077 8.16912 14.9281 8.40052C14.7485 8.63191 14.5117 8.81256 14.2411 8.92471C13.9705 9.03686 13.6754 9.07663 13.3847 9.04012C13.0941 9.00362 12.818 8.89209 12.5835 8.7165L11.4375 7.857C11.2808 7.7003 11.0948 7.576 10.89 7.49119C10.6853 7.40638 10.4659 7.36274 10.2443 7.36274C10.0226 7.36274 9.80321 7.40638 9.59847 7.49119C9.39373 7.576 9.2077 7.7003 9.051 7.857L7.857 9.051C7.197 9.711 7.197 10.7775 7.857 11.436L8.7165 12.5835C8.89206 12.8179 9.00362 13.0939 9.04021 13.3844C9.07679 13.6749 9.03714 13.97 8.92516 14.2406C8.81318 14.5111 8.63272 14.7479 8.40152 14.9276C8.17032 15.1073 7.89634 15.2238 7.6065 15.2655L6.1875 15.4695C5.256 15.4695 4.5 16.224 4.5 17.1555V18.8445C4.5 19.7745 5.256 20.5305 6.1875 20.5305L7.605 20.7345C7.89496 20.776 8.16912 20.8923 8.40052 21.0719C8.63191 21.2515 8.81256 21.4883 8.92471 21.7589C9.03686 22.0295 9.07663 22.3246 9.04012 22.6153C9.00362 22.9059 8.89209 23.182 8.7165 23.4165L7.857 24.5625C7.197 25.2225 7.197 26.2905 7.857 26.949L9.051 28.143C9.711 28.803 10.7775 28.803 11.436 28.143L12.5835 27.2835C12.8179 27.1079 13.0939 26.9964 13.3844 26.9598C13.6749 26.9232 13.97 26.9629 14.2406 27.0748C14.5111 27.1868 14.7479 27.3673 14.9276 27.5985C15.1073 27.8297 15.2238 28.1037 15.2655 28.3935L15.4695 29.8125C15.4695 30.744 16.224 31.5 17.1555 31.5H18.8445C19.7745 31.5 20.5305 30.744 20.5305 29.8125L20.7345 28.395C20.776 28.105 20.8923 27.8309 21.0719 27.5995C21.2515 27.3681 21.4883 27.1874 21.7589 27.0753C22.0295 26.9631 22.3246 26.9234 22.6153 26.9599C22.9059 26.9964 23.182 27.1079 23.4165 27.2835L24.5625 28.143C25.2225 28.803 26.2905 28.803 26.949 28.143L28.143 26.949C28.8015 26.289 28.8015 25.2225 28.143 24.564L27.2835 23.4165C27.1079 23.1821 26.9964 22.9061 26.9598 22.6156C26.9232 22.3251 26.9629 22.03 27.0748 21.7594C27.1868 21.4889 27.3673 21.2521 27.5985 21.0724C27.8297 20.8927 28.1037 20.7762 28.3935 20.7345L29.8125 20.5305C30.744 20.5305 31.5 19.776 31.5 18.8445V17.1555C31.5 16.2255 30.744 15.4695 29.8125 15.4695L28.395 15.2655C28.105 15.224 27.8309 15.1077 27.5995 14.9281C27.3681 14.7485 27.1874 14.5117 27.0753 14.2411C26.9631 13.9705 26.9234 13.6754 26.9599 13.3847C26.9964 13.0941 27.1079 12.818 27.2835 12.5835L28.143 11.4375C28.8015 10.7775 28.8015 9.7095 28.143 9.051L26.949 7.857C26.6326 7.54099 26.2037 7.36348 25.7565 7.36348C25.3093 7.36348 24.8804 7.54099 24.564 7.857L23.4165 8.7165C23.1821 8.89206 22.9061 9.00362 22.6156 9.04021C22.3251 9.07679 22.03 9.03714 21.7594 8.92516C21.4889 8.81318 21.2521 8.63272 21.0724 8.40152C20.8927 8.17032 20.7762 7.89634 20.7345 7.6065L20.5305 6.1875C20.5305 5.256 19.776 4.5 18.8445 4.5H17.157ZM18 21.375C18.8951 21.375 19.7535 21.0194 20.3865 20.3865C21.0194 19.7535 21.375 18.8951 21.375 18C21.375 17.1049 21.0194 16.2465 20.3865 15.6135C19.7535 14.9806 18.8951 14.625 18 14.625C17.1049 14.625 16.2465 14.9806 15.6135 15.6135C14.9806 16.2465 14.625 17.1049 14.625 18C14.625 18.8951 14.9806 19.7535 15.6135 20.3865C16.2465 21.0194 17.1049 21.375 18 21.375Z" fill="#28293F"/>
</svg>
