<svg width="26" height="32" viewBox="0 0 26 32" fill="none" xmlns="http://www.w3.org/2000/svg">
<path d="M23.2375 10.2458L24.7163 8.73164C25.0223 8.41484 25.1942 7.98516 25.1942 7.53714C25.1942 7.08911 25.0223 6.65944 24.7163 6.34264C24.4103 6.02583 23.9953 5.84786 23.5625 5.84786C23.1298 5.84786 22.7148 6.02583 22.4088 6.34264L20.9463 7.87362C18.6689 6.04965 15.8712 5.06004 12.9919 5.06004C10.1127 5.06004 7.31489 6.04965 5.03754 7.87362L3.55879 6.32581C3.25064 6.00901 2.83356 5.83192 2.3993 5.8335C1.96503 5.83507 1.54916 6.01519 1.24317 6.33422C0.937174 6.65326 0.766125 7.08507 0.767649 7.53467C0.769172 7.98428 0.943144 8.41484 1.25129 8.73164L2.74629 10.2626C0.963693 12.6138 -0.00354764 15.5173 4.26221e-05 18.5064C-0.00526412 20.6521 0.485046 22.7681 1.43008 24.6778C2.37512 26.5876 3.74748 28.2357 5.43273 29.4847C7.11797 30.7338 9.06725 31.5476 11.118 31.8582C13.1687 32.1689 15.2615 31.9674 17.2217 31.2705C19.1819 30.5737 20.9529 29.4017 22.3867 27.8523C23.8206 26.303 24.8759 24.4211 25.4646 22.3637C26.0533 20.3063 26.1583 18.133 25.7709 16.0251C25.3835 13.9171 24.5149 11.9356 23.2375 10.2458ZM13 28.6007C11.0717 28.6007 9.18661 28.0087 7.58323 26.8995C5.97985 25.7903 4.73017 24.2138 3.99222 22.3693C3.25426 20.5248 3.06118 18.4952 3.43739 16.537C3.81359 14.5789 4.74219 12.7803 6.10575 11.3686C7.46931 9.95683 9.2066 8.99544 11.0979 8.60594C12.9892 8.21645 14.9496 8.41635 16.7312 9.18037C18.5128 9.94439 20.0355 11.2382 21.1069 12.8982C22.1782 14.5582 22.75 16.5099 22.75 18.5064C22.75 21.1836 21.7228 23.7511 19.8943 25.6442C18.0659 27.5372 15.5859 28.6007 13 28.6007ZM9.75004 3.36479H16.25C16.681 3.36479 17.0943 3.18754 17.3991 2.87203C17.7038 2.55652 17.875 2.1286 17.875 1.6824C17.875 1.2362 17.7038 0.808273 17.3991 0.492762C17.0943 0.177252 16.681 0 16.25 0H9.75004C9.31907 0 8.90574 0.177252 8.60099 0.492762C8.29625 0.808273 8.12504 1.2362 8.12504 1.6824C8.12504 2.1286 8.29625 2.55652 8.60099 2.87203C8.90574 3.18754 9.31907 3.36479 9.75004 3.36479ZM14.625 13.4592C14.625 13.013 14.4538 12.585 14.1491 12.2695C13.8443 11.954 13.431 11.7768 13 11.7768C12.5691 11.7768 12.1557 11.954 11.851 12.2695C11.5462 12.585 11.375 13.013 11.375 13.4592V16.6389C11.0071 16.9796 10.7477 17.428 10.6313 17.9247C10.5149 18.4213 10.5469 18.9429 10.723 19.4204C10.8991 19.8978 11.2112 20.3086 11.6178 20.5985C12.0244 20.8883 12.5064 21.0435 13 21.0435C13.4937 21.0435 13.9757 20.8883 14.3823 20.5985C14.7889 20.3086 15.1009 19.8978 15.2771 19.4204C15.4532 18.9429 15.4852 18.4213 15.3688 17.9247C15.2523 17.428 14.993 16.9796 14.625 16.6389V13.4592Z" fill="#28293F"/>
</svg>
